<svg xmlns="http://www.w3.org/2000/svg" viewBox="0 0 26.15 32.46"><defs><style>.cls-1{fill:#333033;}</style></defs><g id="Capa_2" data-name="Capa 2"><g id="Design"><path class="cls-1" d="M15.26,24.38c-2-.16-2.91-1.18-4.51-2.15C10,26,9.19,29.61,7.19,32.08a1,1,0,0,1-1.8-.57c-.3-6,1.77-10.72,2.78-15.72C6.25,12.55,8.4,6,12.47,7.63c5,2-4.33,12.05,1.93,13.31,6.54,1.32,9.21-11.34,5.15-15.46-5.86-5.94-17-.13-15.67,8.38.26,1.61,1.61,2.35,1.44,3.95a1.42,1.42,0,0,1-2,1.15C.69,17.74-.11,15.09,0,11.71.24,5.26,5.81.74,11.39.11,18.45-.68,25.08,2.71,26,9.35c1,7.49-3.18,15.61-10.73,15Z"/></g></g></svg>