<svg xmlns="http://www.w3.org/2000/svg" viewBox="0 0 1080 738.65"><defs><style>.cls-1{fill:#f5f5f5;}</style></defs><g id="Capa_2" data-name="Capa 2"><g id="VECT"><path class="cls-1" d="M968.53,160.14C907,124.65,857.06,179.07,857.06,239.67c0,62.52,49.91,107.92,111.47,143.41,61.56,34.3,111.47,53.59,111.47-8.23C1080,313.55,1030.09,194.44,968.53,160.14Zm0,160.84c-27.26-15.83-49.37-43.79-49.37-71.21,0-27.11,22.11-43.35,49.37-27.52,27.26,15.59,49.36,58,49.37,85.19C1017.9,334.79,995.79,336.57,968.53,321Zm4.33-192.8C937.1,106.53,901.34,96,865.58,93.83c-25.92-1.6-46.93,22.92-46.82,48.72q.13,35,.28,70c0,72.19-28.82,136.86-75.42,201.61-46.59,63.75-111,127.58-182.08,175.07C400.29,693.73,239,809.51,77.78,683.9c-23-17.68-40.29-50.53-47.74-76.36C22.59,581.34,25,562.16,41.24,563c62.06.94,124.12-36.69,186.18-98.5,22.8-23.36,26.14-54.94,15.73-79.31-10.41-24.9-34.59-42.57-66.83-50.25C129.21,323.83,82.09,296.5,35,246.64,15.65,226.29,0,189.7,0,170.44H0c0-19.4,15.68-14.12,35,6.22,134,141.55,268,101,402,23.35,46-27.14,69,12.89,36.53,66.15-62,100.61-124,196.08-186,272.05-22.8,27.28-26.11,58.53-15.65,82,10.47,23.15,34.69,38.55,66.95,25.92,66.52-25.31,133-68.51,199.55-111.86,51.72-34.19,98.54-84.09,132.41-136.07,33.87-52.36,54.81-106.8,54.77-158.88q-.18-35.28-.34-70.56c-.12-25.67-21-37.88-46.74-24.35-15.65,8.17-31.3,17-46.95,26.34-25.91,15.44-46.87,8-46.74-18.07v-.1c.13-25.78,21-60.13,46.79-75.44C745.34,9.61,859.17-34.14,973,34.78c25.72,15.41,46.59,55.57,46.69,81.3h0C1019.79,142.19,998.78,143.71,972.86,128.18ZM608.37,256.92v68.81c0,38.69-31.44,89.79-70.23,115.2h0V290.2c0-22.13-26.74-15.76-42.38,9.83C438.19,394.31,380.62,485.65,323,562.54c-15.64,20.53-4.56,44.37,17.56,36.06h0c6.58-2.53,12.9-7.77,17.55-14.43q19.78-28.26,39.55-58.28c23.41-12.06,46.81-25.68,70.22-40.1v22c0,13.71,11.12,18,24.83,9.27,15.48-9.84,31-19.91,46.45-30,77-51.52,139.39-147.86,139.39-224.15V216.46c0-13.71-11.11-19.08-24.83-11.33Q643.48,210.94,633.2,217C619.48,225.16,608.37,243.22,608.37,256.92ZM467.92,439q-11.7,7.21-23.41,14.13,11.72-18.6,23.41-37.53Z"/></g></g></svg>