<svg xmlns="http://www.w3.org/2000/svg" viewBox="0 0 1080 381.01"><defs><style>.cls-1{fill:#f5f5f5;}</style></defs><g id="Capa_2" data-name="Capa 2"><g id="VECT"><path class="cls-1" d="M190.66,317.67l63.5-.32,63.51-63.5h63.18v63.5l63.82.32v-254ZM381.17,222.1H349.42l31.43-31.44Z"/><path class="cls-1" d="M460.54,63.66h63.51V222.25A31.74,31.74,0,0,0,556,254h0a31.74,31.74,0,0,0,31.6-31.75V63.34h63.5V222.25A95.26,95.26,0,0,1,556,317.51h0a95.27,95.27,0,0,1-95.41-95.26Z"/><path class="cls-1" d="M761.7,126.69H666.45l.31-63.51L1080,63.5V261.9a118.94,118.94,0,0,1-119,119h-.39a118.94,118.94,0,0,1-118.95-119.1h0A119,119,0,0,1,960.9,143l39.41.08v63.5l-39.61-.07A55.56,55.56,0,0,0,905.05,262h0a55.57,55.57,0,0,0,55.64,55.56H961a55.56,55.56,0,0,0,55.47-55.6l-.4-135.07-190.82-.23.32,79.36a174.7,174.7,0,0,1-174.64,174.7L0,381,269.88,111.29l-127-.17A111.28,111.28,0,0,1,31.75,0h63.5a63.5,63.5,0,0,0,63.5,63.5h254L143,333.54l492.09-.26a127,127,0,0,0,127-127.1Z"/></g></g></svg>