<svg xmlns="http://www.w3.org/2000/svg" viewBox="0 0 15.96 34.35"><defs><style>.cls-1{fill:#333033;fill-rule:evenodd;}</style></defs><g id="Capa_2" data-name="Capa 2"><g id="Design"><path class="cls-1" d="M3.51,17.31v16.6a.44.44,0,0,0,.44.44h6.16a.44.44,0,0,0,.44-.44V17H15a.43.43,0,0,0,.43-.4l.43-5.08a.43.43,0,0,0-.43-.47h-4.9V7.48A1.52,1.52,0,0,1,12.08,6h3.44A.44.44,0,0,0,16,5.52V.43A.44.44,0,0,0,15.52,0H9.7A6.18,6.18,0,0,0,3.52,6.19v4.9H.43a.43.43,0,0,0-.43.43V16.6A.44.44,0,0,0,.43,17H3.52v.27Z"/></g></g></svg>