<svg xmlns="http://www.w3.org/2000/svg" viewBox="0 0 34.6 34.6"><defs><style>.cls-1{fill:#333033;fill-rule:evenodd;}</style></defs><g id="Capa_2" data-name="Capa 2"><g id="Design"><path class="cls-1" d="M17.3,0A17.32,17.32,0,0,0,0,17.3a17.14,17.14,0,0,0,2.76,9.37L.14,32.46a1.51,1.51,0,0,0,.22,1.61,1.52,1.52,0,0,0,1.15.53,1.39,1.39,0,0,0,.4-.06l7.24-2A17.3,17.3,0,1,0,17.3,0Zm0,31.57a14.28,14.28,0,0,1-7.19-1.94,1.48,1.48,0,0,0-.76-.21,1.34,1.34,0,0,0-.4.06l-4.73,1.3,1.65-3.63a1.52,1.52,0,0,0-.16-1.51A14.28,14.28,0,1,1,17.3,31.57Z"/><path class="cls-1" d="M24,19.89a3,3,0,0,0-2.52-.57c-.66.27-1.07,1.29-1.5,1.82a.62.62,0,0,1-.81.17,11.44,11.44,0,0,1-5.7-4.88.69.69,0,0,1,.09-.95,3.94,3.94,0,0,0,1-1.68,3.68,3.68,0,0,0-.47-2A4.62,4.62,0,0,0,12.61,9.6a2,2,0,0,0-2.18.32,4.46,4.46,0,0,0-1.54,3.52A5.19,5.19,0,0,0,9,14.55,9.48,9.48,0,0,0,10.1,17a19,19,0,0,0,1.12,1.69,17.16,17.16,0,0,0,4.84,4.5,14.93,14.93,0,0,0,3,1.44,6.67,6.67,0,0,0,3.52.55,4.24,4.24,0,0,0,3.19-2.37,2.1,2.1,0,0,0,.14-1.21C25.75,20.79,24.62,20.29,24,19.89Z"/></g></g></svg>